<mxfile host="app.diagrams.net" modified="2021-05-24T15:03:31.416Z" agent="5.0 (Macintosh; Intel Mac OS X 10_14_6) AppleWebKit/537.36 (KHTML, like Gecko) Chrome/90.0.4430.212 Safari/537.36" etag="1y-hOUvyM1qFb6y-Vv7h" version="14.6.13" type="github">
  <diagram id="Mz7BUeepNEhSfZsuGcM8" name="Page-1">
    <mxGraphModel dx="1426" dy="2074" grid="1" gridSize="10" guides="1" tooltips="1" connect="1" arrows="1" fold="1" page="1" pageScale="1" pageWidth="827" pageHeight="1169" math="0" shadow="0">
      <root>
        <mxCell id="0" />
        <mxCell id="1" parent="0" />
        <mxCell id="GhG_Aag-6H9SLyIX4dSC-15" style="edgeStyle=orthogonalEdgeStyle;rounded=0;orthogonalLoop=1;jettySize=auto;html=1;entryX=0.5;entryY=0;entryDx=0;entryDy=0;" edge="1" parent="1" source="GhG_Aag-6H9SLyIX4dSC-6" target="GhG_Aag-6H9SLyIX4dSC-2">
          <mxGeometry relative="1" as="geometry" />
        </mxCell>
        <mxCell id="GhG_Aag-6H9SLyIX4dSC-6" value="" style="rounded=0;whiteSpace=wrap;html=1;fillColor=#00CC66;" vertex="1" parent="1">
          <mxGeometry x="190" y="390" width="224" height="170" as="geometry" />
        </mxCell>
        <mxCell id="GhG_Aag-6H9SLyIX4dSC-9" value="" style="edgeStyle=orthogonalEdgeStyle;rounded=0;orthogonalLoop=1;jettySize=auto;html=1;" edge="1" parent="1" target="GhG_Aag-6H9SLyIX4dSC-6">
          <mxGeometry relative="1" as="geometry">
            <mxPoint x="350" y="260" as="sourcePoint" />
            <Array as="points">
              <mxPoint x="300" y="260" />
              <mxPoint x="300" y="325" />
              <mxPoint x="302" y="325" />
            </Array>
          </mxGeometry>
        </mxCell>
        <mxCell id="GhG_Aag-6H9SLyIX4dSC-10" value="品牌数据" style="edgeLabel;html=1;align=center;verticalAlign=middle;resizable=0;points=[];" vertex="1" connectable="0" parent="GhG_Aag-6H9SLyIX4dSC-9">
          <mxGeometry x="0.3396" relative="1" as="geometry">
            <mxPoint as="offset" />
          </mxGeometry>
        </mxCell>
        <mxCell id="GhG_Aag-6H9SLyIX4dSC-14" value="" style="edgeStyle=orthogonalEdgeStyle;rounded=0;orthogonalLoop=1;jettySize=auto;html=1;" edge="1" parent="1" source="GhG_Aag-6H9SLyIX4dSC-1" target="GhG_Aag-6H9SLyIX4dSC-13">
          <mxGeometry relative="1" as="geometry" />
        </mxCell>
        <mxCell id="GhG_Aag-6H9SLyIX4dSC-16" value="权限数据" style="edgeLabel;html=1;align=center;verticalAlign=middle;resizable=0;points=[];" vertex="1" connectable="0" parent="GhG_Aag-6H9SLyIX4dSC-14">
          <mxGeometry x="0.369" y="-1" relative="1" as="geometry">
            <mxPoint as="offset" />
          </mxGeometry>
        </mxCell>
        <mxCell id="GhG_Aag-6H9SLyIX4dSC-1" value="ad-biz-universal-api" style="rounded=0;whiteSpace=wrap;html=1;fillColor=#66FFFF;" vertex="1" parent="1">
          <mxGeometry x="354" y="230" width="120" height="60" as="geometry" />
        </mxCell>
        <mxCell id="GhG_Aag-6H9SLyIX4dSC-2" value="airbus" style="rounded=0;whiteSpace=wrap;html=1;" vertex="1" parent="1">
          <mxGeometry x="242" y="400" width="120" height="60" as="geometry" />
        </mxCell>
        <mxCell id="GhG_Aag-6H9SLyIX4dSC-8" value="" style="edgeStyle=orthogonalEdgeStyle;rounded=0;orthogonalLoop=1;jettySize=auto;html=1;" edge="1" parent="1" source="GhG_Aag-6H9SLyIX4dSC-4" target="GhG_Aag-6H9SLyIX4dSC-1">
          <mxGeometry relative="1" as="geometry" />
        </mxCell>
        <mxCell id="GhG_Aag-6H9SLyIX4dSC-4" value="ad-biz-mikasa" style="rounded=0;whiteSpace=wrap;html=1;fillColor=#66FFFF;" vertex="1" parent="1">
          <mxGeometry x="354" y="120" width="120" height="60" as="geometry" />
        </mxCell>
        <mxCell id="GhG_Aag-6H9SLyIX4dSC-7" value="hive" style="rounded=0;whiteSpace=wrap;html=1;" vertex="1" parent="1">
          <mxGeometry x="242" y="480" width="120" height="60" as="geometry" />
        </mxCell>
        <mxCell id="GhG_Aag-6H9SLyIX4dSC-13" value="ad_biz_dmp&lt;br&gt;brand_premission" style="rounded=0;whiteSpace=wrap;html=1;fillColor=#00CC66;" vertex="1" parent="1">
          <mxGeometry x="510" y="430" width="120" height="60" as="geometry" />
        </mxCell>
        <mxCell id="GhG_Aag-6H9SLyIX4dSC-18" value="初始化权限数据" style="edgeStyle=orthogonalEdgeStyle;rounded=0;orthogonalLoop=1;jettySize=auto;html=1;exitX=0.5;exitY=1;exitDx=0;exitDy=0;entryX=1;entryY=0.5;entryDx=0;entryDy=0;" edge="1" parent="1" source="GhG_Aag-6H9SLyIX4dSC-17" target="GhG_Aag-6H9SLyIX4dSC-13">
          <mxGeometry relative="1" as="geometry" />
        </mxCell>
        <mxCell id="GhG_Aag-6H9SLyIX4dSC-17" value="ad-biz-universal-task" style="rounded=0;whiteSpace=wrap;html=1;fillColor=#66FFFF;" vertex="1" parent="1">
          <mxGeometry x="690" y="230" width="120" height="60" as="geometry" />
        </mxCell>
        <mxCell id="GhG_Aag-6H9SLyIX4dSC-20" value="数仓" style="text;html=1;strokeColor=none;fillColor=none;align=center;verticalAlign=middle;whiteSpace=wrap;rounded=0;" vertex="1" parent="1">
          <mxGeometry x="190" y="400" width="40" height="20" as="geometry" />
        </mxCell>
        <mxCell id="GhG_Aag-6H9SLyIX4dSC-23" value="" style="edgeStyle=orthogonalEdgeStyle;rounded=0;orthogonalLoop=1;jettySize=auto;html=1;" edge="1" parent="1" source="GhG_Aag-6H9SLyIX4dSC-21" target="GhG_Aag-6H9SLyIX4dSC-4">
          <mxGeometry relative="1" as="geometry" />
        </mxCell>
        <mxCell id="GhG_Aag-6H9SLyIX4dSC-21" value="ams" style="rounded=0;whiteSpace=wrap;html=1;fillColor=#FFCCCC;" vertex="1" parent="1">
          <mxGeometry x="354" y="-10" width="120" height="60" as="geometry" />
        </mxCell>
        <mxCell id="GhG_Aag-6H9SLyIX4dSC-24" value="业务层" style="text;html=1;strokeColor=none;fillColor=none;align=center;verticalAlign=middle;whiteSpace=wrap;rounded=0;" vertex="1" parent="1">
          <mxGeometry x="90" y="180" width="40" height="20" as="geometry" />
        </mxCell>
        <mxCell id="GhG_Aag-6H9SLyIX4dSC-25" value="展示层" style="text;html=1;strokeColor=none;fillColor=none;align=center;verticalAlign=middle;whiteSpace=wrap;rounded=0;" vertex="1" parent="1">
          <mxGeometry x="90" width="40" height="20" as="geometry" />
        </mxCell>
        <mxCell id="GhG_Aag-6H9SLyIX4dSC-26" value="数据层" style="text;html=1;strokeColor=none;fillColor=none;align=center;verticalAlign=middle;whiteSpace=wrap;rounded=0;" vertex="1" parent="1">
          <mxGeometry x="70" y="440" width="40" height="20" as="geometry" />
        </mxCell>
      </root>
    </mxGraphModel>
  </diagram>
</mxfile>
